HIERARCHY
ROOT Hips
{
	OFFSET -335.845001 -574.368103 89.378365
	CHANNELS 6 Xposition Yposition Zposition Zrotation Yrotation Xrotation
	JOINT Spine
	{
		OFFSET 0.000000 2.080078 8.814247
		CHANNELS 6 Xposition Yposition Zposition Zrotation Yrotation Xrotation
		JOINT Spine1
		{
			OFFSET 0.000000 0.000000 8.844139
			CHANNELS 6 Xposition Yposition Zposition Zrotation Yrotation Xrotation
			JOINT Spine2
			{
				OFFSET 0.000000 0.000000 11.682266
				CHANNELS 6 Xposition Yposition Zposition Zrotation Yrotation Xrotation
				JOINT Spine3
				{
					OFFSET 0.000000 0.000000 11.746696
					CHANNELS 6 Xposition Yposition Zposition Zrotation Yrotation Xrotation
					JOINT Neck
					{
						OFFSET 0.000000 0.000000 17.658264
						CHANNELS 6 Xposition Yposition Zposition Zrotation Yrotation Xrotation
						JOINT Neck1
						{
							OFFSET 0.000000 0.000000 5.101517
							CHANNELS 6 Xposition Yposition Zposition Zrotation Yrotation Xrotation
							JOINT Head
							{
								OFFSET 0.000000 0.000000 5.101517
								CHANNELS 6 Xposition Yposition Zposition Zrotation Yrotation Xrotation
								JOINT HeadEnd
								{
									OFFSET 0.000000 0.000000 11.655090
									CHANNELS 6 Xposition Yposition Zposition Zrotation Yrotation Xrotation
									End Site
									{
										OFFSET 0.000000 0.000000 0.100006
									}
								}
							}
						}
					}
					JOINT RightShoulder
					{
						OFFSET -2.625397 0.000000 11.175217
						CHANNELS 6 Xposition Yposition Zposition Zrotation Yrotation Xrotation
						JOINT RightArm
						{
							OFFSET 0.000000 0.000000 10.434708
							CHANNELS 6 Xposition Yposition Zposition Zrotation Yrotation Xrotation
							JOINT RightForeArm
							{
								OFFSET 0.000000 0.000000 29.628418
								CHANNELS 6 Xposition Yposition Zposition Zrotation Yrotation Xrotation
								JOINT RightHand
								{
									OFFSET 0.000000 0.000000 22.857605
									CHANNELS 6 Xposition Yposition Zposition Zrotation Yrotation Xrotation
									JOINT RightHandThumb1
									{
										OFFSET -2.867310 -2.944275 3.959564
										CHANNELS 6 Xposition Yposition Zposition Zrotation Yrotation Xrotation
										JOINT RightHandThumb2
										{
											OFFSET 0.000000 0.000000 3.350403
											CHANNELS 6 Xposition Yposition Zposition Zrotation Yrotation Xrotation
											JOINT RightHandThumb3
											{
												OFFSET 0.000000 0.000000 3.756516
												CHANNELS 6 Xposition Yposition Zposition Zrotation Yrotation Xrotation
												JOINT RightHandThumb4
												{
													OFFSET 0.000000 0.000000 3.147339
													CHANNELS 6 Xposition Yposition Zposition Zrotation Yrotation Xrotation
													End Site
													{
														OFFSET 0.000000 0.000000 0.100006
													}
												}
											}
										}
									}
									JOINT RightHandIndex1
									{
										OFFSET -0.086761 -2.345276 10.030899
										CHANNELS 6 Xposition Yposition Zposition Zrotation Yrotation Xrotation
										JOINT RightHandIndex2
										{
											OFFSET 0.000000 0.000000 4.061096
											CHANNELS 6 Xposition Yposition Zposition Zrotation Yrotation Xrotation
											JOINT RightHandIndex3
											{
												OFFSET 0.000000 0.000000 3.248871
												CHANNELS 6 Xposition Yposition Zposition Zrotation Yrotation Xrotation
												JOINT RightHandIndex4
												{
													OFFSET 0.000000 0.000000 2.639709
													CHANNELS 6 Xposition Yposition Zposition Zrotation Yrotation Xrotation
													End Site
													{
														OFFSET 0.000000 0.000000 0.100006
													}
												}
											}
										}
									}
									JOINT RightHandMiddle1
									{
										OFFSET 0.104095 -0.006775 9.502945
										CHANNELS 6 Xposition Yposition Zposition Zrotation Yrotation Xrotation
										JOINT RightHandMiddle2
										{
											OFFSET 0.000000 0.000000 4.568726
											CHANNELS 6 Xposition Yposition Zposition Zrotation Yrotation Xrotation
											JOINT RightHandMiddle3
											{
												OFFSET 0.000000 0.000000 3.654984
												CHANNELS 6 Xposition Yposition Zposition Zrotation Yrotation Xrotation
												JOINT RightHandMiddle4
												{
													OFFSET 0.000000 0.000000 2.741241
													CHANNELS 6 Xposition Yposition Zposition Zrotation Yrotation Xrotation
													End Site
													{
														OFFSET 0.000000 0.000000 0.100006
													}
												}
											}
										}
									}
									JOINT RightHandRing1
									{
										OFFSET 0.086761 2.267456 8.921707
										CHANNELS 6 Xposition Yposition Zposition Zrotation Yrotation Xrotation
										JOINT RightHandRing2
										{
											OFFSET 0.000000 0.000000 4.061096
											CHANNELS 6 Xposition Yposition Zposition Zrotation Yrotation Xrotation
											JOINT RightHandRing3
											{
												OFFSET 0.000000 0.000000 3.654984
												CHANNELS 6 Xposition Yposition Zposition Zrotation Yrotation Xrotation
												JOINT RightHandRing4
												{
													OFFSET 0.000000 0.000000 2.741241
													CHANNELS 6 Xposition Yposition Zposition Zrotation Yrotation Xrotation
													End Site
													{
														OFFSET 0.000000 0.000000 0.100006
													}
												}
											}
										}
									}
									JOINT RightHandPinky1
									{
										OFFSET -0.173492 4.467224 7.976990
										CHANNELS 6 Xposition Yposition Zposition Zrotation Yrotation Xrotation
										JOINT RightHandPinky2
										{
											OFFSET 0.000000 0.000000 3.350403
											CHANNELS 6 Xposition Yposition Zposition Zrotation Yrotation Xrotation
											JOINT RightHandPinky3
											{
												OFFSET 0.000000 0.000000 2.842758
												CHANNELS 6 Xposition Yposition Zposition Zrotation Yrotation Xrotation
												JOINT RightHandPinky4
												{
													OFFSET 0.000000 0.000000 2.639709
													CHANNELS 6 Xposition Yposition Zposition Zrotation Yrotation Xrotation
													End Site
													{
														OFFSET 0.000000 0.000000 0.100006
													}
												}
											}
										}
									}
									JOINT RightForeArmEnd
									{
										OFFSET 0.000000 0.000000 0.000000
										CHANNELS 6 Xposition Yposition Zposition Zrotation Yrotation Xrotation
										End Site
										{
											OFFSET 0.000000 0.000000 0.100006
										}
									}
								}
								JOINT RightArmEnd
								{
									OFFSET 0.000000 0.000000 0.000000
									CHANNELS 6 Xposition Yposition Zposition Zrotation Yrotation Xrotation
									End Site
									{
										OFFSET 0.000000 0.000000 0.100006
									}
								}
							}
						}
					}
					JOINT LeftShoulder
					{
						OFFSET 2.625397 0.000000 11.175217
						CHANNELS 6 Xposition Yposition Zposition Zrotation Yrotation Xrotation
						JOINT LeftArm
						{
							OFFSET 0.000000 0.000000 10.813629
							CHANNELS 6 Xposition Yposition Zposition Zrotation Yrotation Xrotation
							JOINT LeftForeArm
							{
								OFFSET 0.000000 0.000000 28.724777
								CHANNELS 6 Xposition Yposition Zposition Zrotation Yrotation Xrotation
								JOINT LeftHand
								{
									OFFSET 0.644379 0.328857 25.716171
									CHANNELS 6 Xposition Yposition Zposition Zrotation Yrotation Xrotation
									JOINT LeftHandThumb1
									{
										OFFSET 2.867310 -2.944275 3.959564
										CHANNELS 6 Xposition Yposition Zposition Zrotation Yrotation Xrotation
										JOINT LeftHandThumb2
										{
											OFFSET 0.000000 0.000000 3.350403
											CHANNELS 6 Xposition Yposition Zposition Zrotation Yrotation Xrotation
											JOINT LeftHandThumb3
											{
												OFFSET 0.000000 0.000000 3.756516
												CHANNELS 6 Xposition Yposition Zposition Zrotation Yrotation Xrotation
												JOINT LeftHandThumb4
												{
													OFFSET 0.000000 0.000000 3.100006
													CHANNELS 6 Xposition Yposition Zposition Zrotation Yrotation Xrotation
													End Site
													{
														OFFSET 0.000000 0.000000 0.100006
													}
												}
											}
										}
									}
									JOINT LeftHandIndex1
									{
										OFFSET 0.086761 -2.345276 10.030899
										CHANNELS 6 Xposition Yposition Zposition Zrotation Yrotation Xrotation
										JOINT LeftHandIndex2
										{
											OFFSET 0.000000 0.000000 4.061096
											CHANNELS 6 Xposition Yposition Zposition Zrotation Yrotation Xrotation
											JOINT LeftHandIndex3
											{
												OFFSET 0.000000 0.000000 3.248871
												CHANNELS 6 Xposition Yposition Zposition Zrotation Yrotation Xrotation
												JOINT LeftHandIndex4
												{
													OFFSET 0.000000 0.000000 2.639709
													CHANNELS 6 Xposition Yposition Zposition Zrotation Yrotation Xrotation
													End Site
													{
														OFFSET 0.000000 0.000000 0.100006
													}
												}
											}
										}
									}
									JOINT LeftHandMiddle1
									{
										OFFSET -0.104095 -0.006775 9.502945
										CHANNELS 6 Xposition Yposition Zposition Zrotation Yrotation Xrotation
										JOINT LeftHandMiddle2
										{
											OFFSET 0.000000 0.000000 4.568726
											CHANNELS 6 Xposition Yposition Zposition Zrotation Yrotation Xrotation
											JOINT LeftHandMiddle3
											{
												OFFSET 0.000000 0.000000 3.654984
												CHANNELS 6 Xposition Yposition Zposition Zrotation Yrotation Xrotation
												JOINT LeftHandMiddle4
												{
													OFFSET 0.000000 0.000000 2.741241
													CHANNELS 6 Xposition Yposition Zposition Zrotation Yrotation Xrotation
													End Site
													{
														OFFSET 0.000000 0.000000 0.100006
													}
												}
											}
										}
									}
									JOINT LeftHandRing1
									{
										OFFSET -0.086761 2.267456 8.921707
										CHANNELS 6 Xposition Yposition Zposition Zrotation Yrotation Xrotation
										JOINT LeftHandRing2
										{
											OFFSET 0.000000 0.000000 4.061096
											CHANNELS 6 Xposition Yposition Zposition Zrotation Yrotation Xrotation
											JOINT LeftHandRing3
											{
												OFFSET 0.000000 0.000000 3.654984
												CHANNELS 6 Xposition Yposition Zposition Zrotation Yrotation Xrotation
												JOINT LeftHandRing4
												{
													OFFSET 0.000000 0.000000 2.741241
													CHANNELS 6 Xposition Yposition Zposition Zrotation Yrotation Xrotation
													End Site
													{
														OFFSET 0.000000 0.000000 0.100006
													}
												}
											}
										}
									}
									JOINT LeftHandPinky1
									{
										OFFSET 0.173492 4.467224 7.976990
										CHANNELS 6 Xposition Yposition Zposition Zrotation Yrotation Xrotation
										JOINT LeftHandPinky2
										{
											OFFSET 0.000000 0.000000 3.350403
											CHANNELS 6 Xposition Yposition Zposition Zrotation Yrotation Xrotation
											JOINT LeftHandPinky3
											{
												OFFSET 0.000000 0.000000 2.842758
												CHANNELS 6 Xposition Yposition Zposition Zrotation Yrotation Xrotation
												JOINT LeftHandPinky4
												{
													OFFSET 0.000000 0.000000 2.639709
													CHANNELS 6 Xposition Yposition Zposition Zrotation Yrotation Xrotation
													End Site
													{
														OFFSET 0.000000 0.000000 0.100006
													}
												}
											}
										}
									}
									JOINT LeftForeArmEnd
									{
										OFFSET 0.000000 0.000000 0.000000
										CHANNELS 6 Xposition Yposition Zposition Zrotation Yrotation Xrotation
										End Site
										{
											OFFSET 0.000000 0.000000 0.100006
										}
									}
								}
								JOINT LeftArmEnd
								{
									OFFSET 0.000000 0.000000 0.000000
									CHANNELS 6 Xposition Yposition Zposition Zrotation Yrotation Xrotation
									End Site
									{
										OFFSET 0.000000 0.000000 0.100006
									}
								}
							}
						}
					}
				}
			}
		}
	}
	JOINT RightUpLeg
	{
		OFFSET -11.289948 0.000000 0.000000
		CHANNELS 6 Xposition Yposition Zposition Zrotation Yrotation Xrotation
		JOINT RightLeg
		{
			OFFSET 0.000000 0.000000 -38.200329
			CHANNELS 6 Xposition Yposition Zposition Zrotation Yrotation Xrotation
			JOINT RightFoot
			{
				OFFSET 0.000000 0.000000 -39.900856
				CHANNELS 6 Xposition Yposition Zposition Zrotation Yrotation Xrotation
				JOINT RightToeBase
				{
					OFFSET 0.000000 -15.261658 0.000002
					CHANNELS 6 Xposition Yposition Zposition Zrotation Yrotation Xrotation
					JOINT RightToeBaseEnd
					{
						OFFSET 0.000000 -7.370728 0.000000
						CHANNELS 6 Xposition Yposition Zposition Zrotation Yrotation Xrotation
						End Site
						{
							OFFSET 0.000000 0.000000 0.100000
						}
					}
				}
				JOINT RightLegEnd
				{
					OFFSET 0.000000 0.000000 0.000000
					CHANNELS 6 Xposition Yposition Zposition Zrotation Yrotation Xrotation
					End Site
					{
						OFFSET 0.000000 0.000000 0.100000
					}
				}
			}
			JOINT RightUpLegEnd
			{
				OFFSET 0.000000 0.000000 0.000000
				CHANNELS 6 Xposition Yposition Zposition Zrotation Yrotation Xrotation
				End Site
				{
					OFFSET 0.000000 0.000000 0.099998
				}
			}
		}
	}
	JOINT LeftUpLeg
	{
		OFFSET 11.315674 0.000000 0.000000
		CHANNELS 6 Xposition Yposition Zposition Zrotation Yrotation Xrotation
		JOINT LeftLeg
		{
			OFFSET 0.000000 0.000000 -38.200329
			CHANNELS 6 Xposition Yposition Zposition Zrotation Yrotation Xrotation
			JOINT LeftFoot
			{
				OFFSET 0.000000 0.000000 -39.900856
				CHANNELS 6 Xposition Yposition Zposition Zrotation Yrotation Xrotation
				JOINT LeftToeBase
				{
					OFFSET 0.000000 -15.261658 0.000002
					CHANNELS 6 Xposition Yposition Zposition Zrotation Yrotation Xrotation
					JOINT LeftToeBaseEnd
					{
						OFFSET 0.000000 -7.539978 0.000000
						CHANNELS 6 Xposition Yposition Zposition Zrotation Yrotation Xrotation
						End Site
						{
							OFFSET 0.000000 0.000000 0.100000
						}
					}
				}
				JOINT LeftLegEnd
				{
					OFFSET 0.000000 0.000000 0.000000
					CHANNELS 6 Xposition Yposition Zposition Zrotation Yrotation Xrotation
					End Site
					{
						OFFSET 0.000000 0.000000 0.100000
					}
				}
			}
			JOINT LeftUpLegEnd
			{
				OFFSET 0.000000 0.000000 0.000000
				CHANNELS 6 Xposition Yposition Zposition Zrotation Yrotation Xrotation
				End Site
				{
					OFFSET 0.000000 0.000000 0.099998
				}
			}
		}
	}
}
MOTION
Frames: 2
Frame Time: 0.016667
-2.839386 18.582153 87.047623 24.135452 2.707529 -13.271110 0.000004 2.080084 8.814228 0.303434 1.784137 10.036726 -0.000012 0.000012 8.844154 0.101191 2.090185 5.407681 -0.000012 -0.000082 11.682281 -4.299426 0.099548 9.137652 -0.000033 0.000000 11.746700 -2.218428 -0.843664 6.672858 -0.000002 0.000016 17.658285 -11.148257 -11.354985 2.466755 0.000007 0.000008 5.101505 -7.833745 1.079446 -5.883971 0.000005 0.000011 5.101504 -1.311155 0.080514 -15.886176 0.000006 0.000005 11.655046 -0.000001 0.000000 0.000000 -2.625383 0.000022 11.175246 13.032213 -90.331390 0.128422 0.000019 -0.000011 10.434700 -48.066982 -56.164649 52.759185 0.000000 -0.000016 29.628437 25.213715 1.911187 91.325742 0.000015 0.000005 22.857590 -2.528168 26.858416 18.241192 -2.867305 -2.944214 3.959503 32.376534 -26.012277 39.209828 -0.000031 0.000031 3.350418 -32.043221 10.625969 -54.110524 0.000000 0.000000 3.756485 -21.288252 10.722383 -36.931649 -0.000005 -0.000066 3.147341 0.000000 0.000001 0.000000 -0.086750 -2.345266 10.030861 -80.437826 -71.261310 77.147287 0.000004 -0.000063 4.061104 -7.424624 -59.519675 13.814500 -0.000011 -0.000078 3.248840 -7.924603 -59.519703 13.814466 -0.000027 0.000005 2.639707 0.000001 -0.000002 -0.000001 0.104086 -0.006815 9.502878 -70.156746 -75.676577 71.241223 -0.000010 -0.000021 4.568655 -2.422663 -59.522387 5.108900 -0.000032 0.000029 3.654928 -2.922967 -59.522380 5.109189 -0.000037 -0.000010 2.741243 0.000002 -0.000007 -0.000004 0.086769 2.267473 8.921722 65.388884 -96.097989 -58.282284 -0.000042 -0.000057 4.061060 3.549173 -64.151718 -7.252914 -0.000019 -0.000051 3.655003 4.549170 -64.151718 -7.253432 -0.000048 -0.000002 2.741224 -0.000000 0.000001 0.000001 -0.173485 4.467204 7.976980 -22.810977 -96.910467 35.823837 -0.000031 -0.000063 3.350433 11.979326 -63.138057 -22.567795 -0.000042 -0.000046 2.842773 13.979315 -63.138057 -22.567780 -0.000036 -0.000060 2.639721 -0.000000 0.000002 0.000001 0.000015 -0.000015 -0.000007 0.000002 -0.000001 0.000003 0.000009 -0.000000 -0.000002 0.000000 0.000002 -0.000000 2.625395 0.000012 11.175240 -11.228366 85.104970 -0.278862 -0.000046 0.000017 10.813622 58.975098 60.926018 42.494012 0.000029 -0.000001 28.724800 -13.848465 0.124763 88.575444 0.644356 0.328835 25.716148 12.464311 -38.179125 5.860370 2.867280 -2.944336 3.959518 -33.368380 28.932869 35.307488 -0.000015 0.000015 3.350430 38.136406 -9.120981 -64.011775 -0.000053 -0.000015 3.756496 25.652980 -11.066059 -43.903483 -0.000074 0.000005 3.100002 -0.000001 -0.000000 0.000000 0.086777 -2.345293 10.030968 -7.277427 101.324859 -19.157239 0.000008 0.000004 4.061172 -15.937611 70.341789 -23.162427 -0.000023 -0.000002 3.248909 -16.437615 70.341789 -23.164406 -0.000039 -0.000002 2.639711 0.000000 0.000002 0.000001 -0.104115 -0.006769 9.502949 -31.083682 102.336998 -36.161999 0.000027 -0.000100 4.568775 -5.444992 70.336755 -8.424463 0.000011 -0.000060 3.655010 -5.937094 70.337022 -8.419881 -0.000037 0.000005 2.741239 -0.000000 -0.000001 0.000001 -0.086731 2.267475 8.921745 -39.754122 112.292729 -36.191120 0.000019 0.000017 4.061111 8.920423 74.749925 12.958536 -0.000055 -0.000030 3.655010 9.920425 74.749973 12.959944 -0.000034 -0.000011 2.741262 0.000001 0.000001 -0.000003 0.173485 4.467182 7.976959 -53.842600 117.987365 -40.842472 0.000023 -0.000031 3.350452 26.804983 72.659054 38.500158 -0.000023 -0.000023 2.842800 28.804912 72.659054 38.500096 -0.000031 0.000002 2.639718 -0.000001 -0.000003 0.000000 -0.000015 -0.000019 0.000022 0.000004 -0.000002 0.000000 0.000003 -0.000005 0.000018 0.000000 -0.000001 0.000001 -11.289951 0.000037 0.000008 -6.772200 4.402020 -2.520760 -0.000009 0.000062 -38.200321 -0.681075 0.278494 22.238563 0.000001 -0.000072 -39.900860 -18.787736 -3.093808 23.270624 0.000011 -15.261705 0.000034 1.094008 1.483413 -20.276246 0.000001 -7.370667 -0.000002 0.000000 0.000000 0.000001 -0.000002 -0.000001 0.000001 0.000000 0.000000 -0.000001 -0.000003 0.000068 0.000002 -0.000001 -0.000000 -0.000000 11.315714 0.000060 -0.000003 -6.813615 2.640240 1.354738 -0.000022 0.000056 -38.200314 -0.342945 0.193311 29.409200 0.000030 0.000000 -39.900856 11.206256 -4.199786 7.660820 -0.000026 -15.261663 0.000014 0.371221 -0.361984 -21.203291 -0.000025 -7.539976 -0.000000 -0.000000 0.000000 -0.000000 -0.000018 0.000015 0.000001 -0.000003 0.000000 0.000003 0.000026 -0.000004 0.000003 0.000001 -0.000001 0.000000 
-2.811554 18.686035 86.961517 23.040707 2.717046 -13.720428 -0.000009 2.080066 8.814243 0.354133 1.634751 10.187095 0.000003 -0.000029 8.844153 0.078014 2.008147 5.408581 -0.000008 -0.000019 11.682261 -3.971179 0.266308 9.261683 0.000017 0.000031 11.746686 -2.097498 -0.527292 6.641505 0.000017 -0.000007 17.658276 -9.652643 -9.491912 1.830562 0.000007 0.000064 5.101479 -6.973876 1.101220 -5.896625 0.000002 -0.000015 5.101517 -1.280018 0.434883 -15.688569 0.000004 0.000001 11.655061 0.000000 -0.000000 -0.000000 -2.625383 0.000024 11.175239 11.305422 -89.888991 2.141215 -0.000029 0.000004 10.434708 -48.553704 -57.298047 53.730889 0.000006 0.000006 29.628403 26.177603 1.969450 92.841832 0.000031 0.000051 22.857635 2.008840 27.026152 18.137514 -2.867305 -2.944321 3.959564 32.376541 -26.012241 39.209794 -0.000008 0.000000 3.350410 -32.043238 10.625961 -54.110517 -0.000046 -0.000015 3.756542 -21.288255 10.722369 -36.931656 -0.000009 -0.000076 3.147345 0.000001 0.000001 0.000000 -0.086761 -2.345268 10.030874 -79.680871 -71.210029 77.319271 0.000004 -0.000048 4.061104 -7.387216 -59.442419 13.771078 -0.000004 -0.000065 3.248840 -7.887239 -59.442433 13.771091 -0.000055 -0.000008 2.639683 -0.000001 0.000001 -0.000000 0.104081 -0.006812 9.502935 -70.144322 -75.669091 72.005207 -0.000015 0.000001 4.568663 -2.427776 -59.551525 5.114932 -0.000002 -0.000022 3.654913 -2.927786 -59.551572 5.114951 -0.000032 -0.000005 2.741271 0.000001 -0.000000 -0.000000 0.086767 2.267462 8.921698 62.643702 -96.232304 -54.832742 -0.000021 -0.000072 4.061090 3.603528 -64.336605 -7.313265 -0.000013 -0.000051 3.655006 4.603552 -64.336598 -7.313307 -0.000043 0.000006 2.741225 -0.000000 -0.000000 0.000000 -0.173485 4.467110 7.976925 -20.985703 -97.384195 34.723961 -0.000031 -0.000153 3.350410 12.188800 -63.363556 -22.802353 -0.000027 -0.000065 2.842781 14.188724 -63.363590 -22.802296 -0.000033 -0.000060 2.639717 -0.000000 -0.000002 -0.000001 -0.000001 -0.000006 0.000016 0.000003 0.000002 -0.000003 -0.000005 0.000003 0.000013 -0.000000 0.000002 -0.000000 2.625397 -0.000003 11.175240 -10.968863 85.377979 -0.288621 -0.000008 -0.000027 10.813644 56.343166 62.966394 39.119444 0.000033 -0.000011 28.724810 -13.866552 0.128200 88.114563 0.644348 0.328777 25.716099 11.921609 -37.945891 5.633840 2.867281 -2.944351 3.959518 -33.368377 28.932879 35.307495 -0.000023 -0.000015 3.350510 38.136406 -9.120981 -64.011782 -0.000053 -0.000031 3.756485 25.652982 -11.066060 -43.903490 -0.000026 0.000008 3.100007 -0.000001 0.000002 -0.000000 0.086773 -2.345301 10.030922 -7.408976 101.178700 -18.922870 0.000004 0.000013 4.061127 -15.777076 70.214652 -22.996863 -0.000004 0.000021 3.248924 -16.277101 70.214645 -22.998753 -0.000019 0.000005 2.639705 0.000000 0.000000 0.000001 -0.104099 -0.006784 9.502972 -31.495744 102.191187 -36.239058 0.000023 -0.000070 4.568768 -5.390378 70.205513 -8.367406 0.000017 -0.000058 3.655003 -5.890341 70.205527 -8.370204 -0.000039 0.000005 2.741257 0.000001 0.000003 0.000000 -0.086769 2.267465 8.921745 -40.230617 112.083609 -36.572716 0.000008 -0.000011 4.061142 8.761282 74.565790 12.796698 0.000015 0.000008 3.655010 9.761279 74.565790 12.796229 -0.000042 -0.000004 2.741246 -0.000000 -0.000001 -0.000001 0.173500 4.467186 7.976952 -54.421380 117.801106 -41.638548 0.000000 -0.000038 3.350456 26.261826 72.452229 37.930824 0.000008 -0.000015 2.842777 28.261810 72.452263 37.930796 -0.000022 0.000002 2.639718 -0.000001 0.000000 -0.000001 -0.000014 0.000002 0.000029 -0.000000 -0.000001 0.000001 -0.000001 0.000006 -0.000012 0.000001 -0.000001 -0.000002 -11.289944 0.000007 0.000004 -6.265157 4.320227 -2.618065 -0.000015 0.000049 -38.200317 -0.692898 0.289713 22.689412 -0.000020 -0.000088 -39.900864 -18.271343 -3.172630 23.396029 0.000037 -15.261706 0.000024 1.109696 1.471100 -20.249443 0.000001 -7.370666 -0.000002 -0.000000 0.000000 0.000001 0.000035 0.000003 -0.000001 -0.000001 0.000000 0.000001 0.000007 0.000009 -0.000006 -0.000001 0.000000 -0.000001 11.315709 0.000004 -0.000009 -5.874928 2.535407 1.657538 0.000025 0.000035 -38.200302 -0.365539 0.209541 29.822669 0.000025 -0.000006 -39.900864 11.440384 -4.260363 7.352594 -0.000011 -15.261652 0.000040 0.386722 -0.346615 -21.122401 -0.000017 -7.539971 -0.000001 -0.000001 -0.000000 -0.000000 -0.000004 0.000006 -0.000001 -0.000001 0.000000 0.000002 0.000025 0.000061 -0.000003 -0.000000 0.000000 -0.000000 
